<?xml version="1.0" ?><svg viewBox="0 0 22.62 22.621" xmlns="http://www.w3.org/2000/svg"><g data-name="Layer 2" id="Layer_2"><g data-name="Layer 1" id="Layer_1-2"><path d="M22.477,9.419l-3.2-2.26a.343.343,0,0,0-.2-.063H2.971a.358.358,0,1,0-.685,0H1.257A1.259,1.259,0,0,0,0,8.353V11.08a1.258,1.258,0,0,0,1.257,1.256H2.286a.358.358,0,1,0,.685,0H19.08a.34.34,0,0,0,.2-.064l3.2-2.295A.345.345,0,0,0,22.477,9.419ZM2.286,11.651C1.778,11.6.7,11.888.686,11.08V8.353c.02-.81,1.091-.523,1.6-.571Zm16.445,0H2.971V10.064l15.76-.01Zm0-2.283-15.76.011v-1.6h15.76Zm.685,1.962V8.1L21.688,9.7ZM2.286,5.61V.343A.343.343,0,0,1,2.628,0H19.994a.344.344,0,0,1,.343.343V6.055a.343.343,0,0,1-.686,0V.686H2.971V5.61a.343.343,0,0,1-.685,0Zm15.423-.12H14.6a.343.343,0,0,1,0-.685h3.114A.343.343,0,0,1,17.709,5.49Zm-12.8-.685h7.4a.343.343,0,0,1,0,.685h-7.4A.343.343,0,0,1,4.913,4.805Zm12.8-1.6H10.882a.343.343,0,0,1,0-.685h6.827A.343.343,0,0,1,17.709,3.205ZM4.913,2.52H8.6a.343.343,0,0,1,0,.685H4.913A.343.343,0,0,1,4.913,2.52ZM9.682,16.231H14.51a.343.343,0,1,1,0,.685H9.682a.343.343,0,1,1,0-.685Zm-5.111.342a.342.342,0,0,1,.342-.342H7.4a.343.343,0,1,1,0,.685H4.913A.343.343,0,0,1,4.571,16.573Zm8.565-1.942a.343.343,0,0,1,0-.685h4.573a.343.343,0,0,1,0,.685Zm-2.285,0H4.913a.343.343,0,0,1,0-.685h5.938A.343.343,0,0,1,10.851,14.631Zm9.486-1.264v5.712a.344.344,0,0,1-.343.343h-9.04L6.012,22.567a.34.34,0,0,1-.184.054.346.346,0,0,1-.343-.343V19.422H2.628a.343.343,0,0,1-.342-.343V13.836a.343.343,0,0,1,.685,0v4.9H5.828a.343.343,0,0,1,.342.343v2.575l4.5-2.864a.347.347,0,0,1,.185-.054h8.8V13.367a.343.343,0,0,1,.686,0Z" id="blog"/></g></g></svg>